#!OML:ASF F:\VICON\USERDATA\INSTALL\rory3\rory3.ASF
:FULLY-SPECIFIED
:DEGREES
1658
root 5.75038 18.0212 13.0664 368.356 -245.702 9.71962
lowerback 10.2591 2.31693 3.19353
upperback 0.0903726 3.54234 0.789124
thorax -5.51609 1.6833 -1.49212
lowerneck -19.8466 -2.56073 -10.1639
upperneck 39.1215 0.672938 4.00337
head 17.9168 -0.0288465 4.02795
rclavicle 3.41102e-014 5.66536e-015
rhumerus -31.6327 -9.02821 -74.8323
rradius 38.9001
rwrist 0.506691
rhand -16.644 10.3803
rfingers 7.12502
rthumb 9.57882 -19.382
lclavicle 3.41102e-014 5.66536e-015
lhumerus -38.8542 7.5688 82.6896
lradius 29.8655
lwrist -10.5481
lhand -16.6422 25.3576
lfingers 7.12502
lthumb 9.5806 55.1198
rfemur 7.35981 -8.04598 20.8372
rtibia 32.947
rfoot -4.01551 -7.24334
rtoes -15.3315
lfemur -16.9393 5.22709 -24.4141
ltibia 16.5989
lfoot -0.797193 10.4015
ltoes 13.9233
1659
root 5.86363 18.0339 12.9802 367.699 -245.165 9.24664
lowerback 10.3018 2.49158 3.25479
upperback 0.0739183 3.7703 0.58958
thorax -5.52932 1.78977 -1.76924
lowerneck -19.4922 -2.75969 -9.81222
upperneck 39.1285 0.205116 4.01935
head 17.8739 -0.14625 3.87838
rclavicle -8.8981e-014 -2.98177e-016
rhumerus -32.5103 -9.92945 -74.7254
rradius 38.9835
rwrist 0.474503
rhand -16.2302 10.4161
rfingers 7.12502
rthumb 9.97811 -19.3274
lclavicle -8.8981e-014 -2.98177e-016
lhumerus -38.7314 6.63431 82.7245
lradius 29.7478
lwrist -10.0005
lhand -16.8798 25.2331
lfingers 7.12502
lthumb 9.35128 55.0057
rfemur 6.61761 -8.40742 20.3157
rtibia 35.1871
rfoot -1.97399 -6.45532
rtoes -13.1534
lfemur -16.1141 5.06536 -24.6177
ltibia 16.3542
lfoot -0.774812 9.80473
ltoes 14.6556
1660
root 5.9732 18.0411 12.8948 367.064 -244.591 8.7237
lowerback 10.3175 2.55358 3.21661
upperback 0.0477723 3.84357 0.508063
thorax -5.55869 1.8243 -1.84497
lowerneck -19.1518 -2.8503 -9.64088
upperneck 39.0005 0.00706193 3.92182
head 17.7319 -0.201405 3.7521
rclavicle 6.43565e-015 9.74045e-015
rhumerus -33.1358 -10.5939 -74.5706
rradius 38.8952
rwrist 0.565462
rhand -15.7351 10.7098
rfingers 7.12502
rthumb 10.4557 -19.0102
lclavicle 6.43565e-015 9.74045e-015
lhumerus -38.6747 6.26381 82.7298
lradius 29.6207
lwrist -9.86846
lhand -17.0478 24.983
lfingers 7.12502
lthumb 9.18918 54.7628
rfemur 5.67454 -8.74983 19.8207
rtibia 37.4973
rfoot 0.457012 -5.64339
rtoes -11.4372
lfemur -15.3542 5.34541 -24.9444
ltibia 16.0325
lfoot -0.437752 8.51604
ltoes 14.9164
1661
root 6.08352 18.0438 12.8087 366.359 -244.05 8.06676
lowerback 10.2258 2.54907 3.02614
upperback 0.0825298 3.80951 0.492322
thorax -5.48331 1.81459 -1.74409
lowerneck -19.0704 -2.88333 -9.58357
upperneck 38.9325 -0.0134426 3.78078
head 17.6756 -0.216196 3.6677
rclavicle 6.6245e-014 7.95139e-016
rhumerus -33.4789 -10.9635 -74.4532
rradius 38.6963
rwrist 0.749498
rhand -15.2659 10.6601
rfingers 7.12502
rthumb 10.9083 -19.0366
lclavicle 6.6245e-014 7.95139e-016
lhumerus -38.5939 6.37452 82.6745
lradius 29.6312
lwrist -10.0198
lhand -16.8402 25.0145
lfingers 7.12502
lthumb 9.38951 54.7854
rfemur 4.59616 -8.97341 19.2852
rtibia 39.8482
rfoot 3.14476 -4.88651
rtoes -10.0807
lfemur -14.617 5.68462 -25.3578
ltibia 15.6527
lfoot 0.00252148 7.33674
ltoes 15.1863
1662
root 6.19222 18.0492 12.7235 365.546 -243.663 7.36195
lowerback 10.1992 2.56136 2.77883
upperback 0.178264 3.79079 0.428984
thorax -5.3799 1.81464 -1.6649
lowerneck -19.3038 -2.91629 -9.40082
upperneck 39.0912 -0.0335649 3.64792
head 17.8275 -0.21739 3.58253
rclavicle 3.967e-014 1.74931e-014
rhumerus -33.756 -11.0565 -74.517
rradius 38.5655
rwrist 0.709035
rhand -14.8071 10.6635
rfingers 7.12502
rthumb 11.3508 -19.0093
lclavicle 3.967e-014 1.74931e-014
lhumerus -38.4987 6.15121 82.6911
lradius 29.879
lwrist -9.74197
lhand -16.4864 25.3339
lfingers 7.12502
lthumb 9.73088 55.0891
rfemur 3.50289 -8.98951 18.6928
rtibia 42.2136
rfoot 5.79252 -4.1807
rtoes -8.32952
lfemur -13.7644 5.95149 -25.768
ltibia 15.2056
lfoot 0.441016 6.74482
ltoes 15.1911
